#N canvas 2532 239 253 481 12;
#X floatatom 47 24 0 0 0 0 - - -;
#X obj 47 173 oscformat foo;
#X msg 65 360 disconnect;
#X obj 46 391 netsend -u -b;
#X obj 46 199 list prepend send;
#X obj 46 224 list trim;
#X msg 55 335 connect localhost 57120;
#X obj 113 112 oscparse;
#X obj 113 135 print parse-output;
#X obj 113 80 netreceive -u -b;
#X msg 113 25 listen 5000;
#X msg 125 53 listen 0;
#X connect 0 0 1 0;
#X connect 1 0 4 0;
#X connect 2 0 3 0;
#X connect 4 0 5 0;
#X connect 5 0 3 0;
#X connect 6 0 3 0;
#X connect 7 0 8 0;
#X connect 9 0 7 0;
#X connect 10 0 9 0;
#X connect 11 0 9 0;
